<svg xmlns="http://www.w3.org/2000/svg" viewBox="0 0 512 512" role="img" aria-label="Life">
  <defs>
    <linearGradient id="bg" x1="64" y1="24" x2="448" y2="492" gradientUnits="userSpaceOnUse">
      <stop offset="0" stop-color="#e7f6ff"/>
      <stop offset="0.42" stop-color="#c2dcff"/>
      <stop offset="0.74" stop-color="#bbaef5"/>
      <stop offset="1" stop-color="#a18fec"/>
    </linearGradient>
    <radialGradient id="gloss" cx="28%" cy="14%" r="78%">
      <stop offset="0" stop-color="#ffffff" stop-opacity="0.76"/>
      <stop offset="0.35" stop-color="#ffffff" stop-opacity="0.26"/>
      <stop offset="1" stop-color="#ffffff" stop-opacity="0"/>
    </radialGradient>
    <filter id="shadow" x="-20%" y="-20%" width="140%" height="145%">
      <feDropShadow dx="0" dy="10" stdDeviation="9" flood-color="#6656bf" flood-opacity="0.18"/>
    </filter>
  </defs>

  <rect width="512" height="512" rx="104" fill="url(#bg)"/>
  <rect width="512" height="512" rx="104" fill="url(#gloss)"/>
  <path d="M74 88C160 48 306 40 428 94" fill="none" stroke="#ffffff" stroke-width="20" stroke-linecap="round" opacity="0.22"/>

  <g
    fill="none"
    stroke="#ffffff"
    stroke-width="24"
    stroke-linecap="round"
    stroke-linejoin="round"
    filter="url(#shadow)"
  >
    <!-- L -->
    <path d="M118 150V332H190"/>

    <!-- i -->
    <circle cx="224" cy="160" r="11" fill="#ffffff" stroke="none"/>
    <path d="M224 216V332"/>

    <!-- f -->
    <path d="M284 332V184C284 149 306 134 338 143"/>
    <path d="M260 224H330"/>

    <!-- e -->
    <path d="M384 244C350 244 326 264 326 292C326 321 350 340 384 336C408 333 424 322 432 306"/>
    <path d="M326 286H432C429 259 411 244 384 244Z"/>
  </g>
</svg>
