<svg xmlns="http://www.w3.org/2000/svg" viewBox="0 0 108 108" role="img" aria-label="Life Log">
  <defs>
    <linearGradient id="sky" x1="13" y1="8" x2="98" y2="102" gradientUnits="userSpaceOnUse">
      <stop offset="0" stop-color="#dff4ff"/>
      <stop offset="0.42" stop-color="#b9d7ff"/>
      <stop offset="1" stop-color="#bca8ff"/>
    </linearGradient>
    <radialGradient id="glow" cx="30" cy="18" r="70" gradientUnits="userSpaceOnUse">
      <stop offset="0" stop-color="#ffffff" stop-opacity="0.9"/>
      <stop offset="0.42" stop-color="#ffffff" stop-opacity="0.22"/>
      <stop offset="1" stop-color="#ffffff" stop-opacity="0"/>
    </radialGradient>
    <filter id="softShadow" x="-20%" y="-20%" width="140%" height="140%">
      <feDropShadow dx="0" dy="7" stdDeviation="7" flood-color="#6b74c7" flood-opacity="0.22"/>
    </filter>
  </defs>
  <rect x="8" y="8" width="92" height="92" rx="22" fill="url(#sky)" filter="url(#softShadow)"/>
  <rect x="8" y="8" width="92" height="92" rx="22" fill="url(#glow)"/>
  <path d="M18 28C36 17 62 14 87 24" fill="none" stroke="#ffffff" stroke-opacity="0.22" stroke-width="10" stroke-linecap="round"/>
  <g transform="translate(0 4) rotate(-8 54 54)" fill="none" stroke="#ffffff" stroke-linecap="round" stroke-linejoin="round">
    <path d="M24 26V73H47" stroke-width="8"/>
    <path d="M54 47V73" stroke-width="7"/>
    <path d="M55 34H55.4" stroke-width="8"/>
    <path d="M66 73V42C66 30 75 27 83 33" stroke-width="7"/>
    <path d="M59 48H78" stroke-width="7"/>
    <path d="M92 58H72" stroke-width="6"/>
    <path d="M94 58C95 49 89 43 81 44C73 45 68 51 69 60C70 69 77 74 86 71C90 70 93 67 95 64" stroke-width="6"/>
  </g>
</svg>
